/* XPM */
static char *wmxmms[] = {
/* width height num_colors chars_per_pixel */
"    48    48      189            2",
/* colors */
".. c #040204",
".# c #4c6a7c",
".a c #b40204",
".b c #24363c",
".c c #9c9e9c",
".d c #3c525c",
".e c #7c7a7c",
".f c #5c7e94",
".g c #545254",
".h c #141e24",
".i c #646a6c",
".j c #445e6c",
".k c #344244",
".l c #545e64",
".m c #64767c",
".n c #3c464c",
".o c #0c1214",
".p c #547684",
".q c #4c5254",
".r c #8c8e8c",
".s c #1c2a2c",
".t c #343634",
".u c #54666c",
".v c #4c4a4c",
".w c #5c6a74",
".x c #6c7e8c",
".y c #acaeac",
".z c #445a64",
".A c #242224",
".B c #64727c",
".C c #c4c6c4",
".D c #3c4e5c",
".E c #1c1a1c",
".F c #848684",
".G c #5c5e5c",
".H c #747674",
".I c #141a1c",
".J c #949694",
".K c #040a0c",
".L c #2c3e44",
".M c #445254",
".N c #4c6674",
".O c #4c5a5c",
".P c #243234",
".Q c #547284",
".R c #a4a6a4",
".S c #64869c",
".T c #545a5c",
".U c #1c262c",
".V c #6c6a6c",
".W c #2c3234",
".X c #6c7a84",
".Y c #444644",
".Z c #141214",
".0 c #343e44",
".1 c #546a74",
".2 c #2c363c",
".3 c #647e8c",
".4 c #1c1e1c",
".5 c #3c4244",
".6 c #4c5e64",
".7 c #344a54",
".8 c #c4c2c4",
".9 c #5c7684",
"#. c #242a2c",
"## c #5c727c",
"#a c #6c8694",
"#b c #646264",
"#c c #7c8284",
"#d c #344654",
"#e c #bcbabc",
"#f c #546264",
"#g c #4c5664",
"#h c #949294",
"#i c #343a44",
"#j c #5c666c",
"#k c #cccecc",
"#l c #8c8a8c",
"#m c #5c626c",
"#n c #9c9a9c",
"#o c #0c0a0c",
"#p c #445664",
"#q c #acaaac",
"#r c #444a54",
"#s c #546e84",
"#t c #2c3a3c",
"#u c #64829c",
"#v c #1c222c",
"#w c #4c6274",
"#x c #5c7a94",
"#y c #040604",
"#z c #3c5664",
"#A c #545654",
"#B c #646e7c",
"#C c #2c2e2c",
"#D c #34464c",
"#E c #647a84",
"#F c #0c1614",
"#G c #4c565c",
"#H c #8c9294",
"#I c #343a3c",
"#J c #4c4e4c",
"#K c #5c6e74",
"#L c #6c828c",
"#M c #b4b6b4",
"#N c #242624",
"#O c #6c7274",
"#P c #cccacc",
"#Q c #444e54",
"#R c #848a8c",
"#S c #5c6264",
"#T c #44565c",
"#U c #4c5a6c",
"#V c #a4aaac",
"#W c #6c6e6c",
"#X c #343234",
"#Y c #444a4c",
"#Z c #141614",
"#0 c #546e7c",
"#1 c #648294",
"#2 c #1c2224",
"#3 c #a4a2a4",
"#4 c #b4b2b4",
"#5 c #444244",
"#6 c #748694",
"#7 c #848284",
"#8 c #3c3e44",
"#9 c #646e74",
"a. c #3c4a54",
"a# c #748e9c",
"aa c #c4cacc",
"ab c #4c626c",
"ac c #5c7a8c",
"ad c #242e34",
"ae c #646664",
"af c #bcbebc",
"ag c #0c0e0c",
"ah c #7c7e7c",
"ai c #3c5264",
"aj c #34424c",
"ak c #545e6c",
"al c #647684",
"am c #4c525c",
"an c #8c8e94",
"ao c #1c2a34",
"ap c #34363c",
"aq c #546674",
"ar c #445a6c",
"as c #647284",
"at c #84868c",
"au c #5c5e64",
"av c #141a24",
"aw c #94969c",
"ax c #2c3e4c",
"ay c #44525c",
"az c #4c667c",
"aA c #4c5a64",
"aB c #24323c",
"aC c #a4a6ac",
"aD c #545a64",
"aE c #2c323c",
"aF c #6c7a8c",
"aG c #44464c",
"aH c #343e4c",
"aI c #546a7c",
"aJ c #2c3644",
"aK c #647e94",
"aL c #1c1e24",
"aM c #3c424c",
"aN c #4c5e6c",
"aO c #5c768c",
"aP c #242a34",
"aQ c #5c7284",
"aR c #54626c",
"aS c #5c6674",
"aT c #2c3a44",
"aU c #04060c",
"aV c #2c2e34",
"aW c #0c161c",
"aX c #4c4e54",
"aY c #5c6e7c",
"aZ c #6c8294",
"a0 c #24262c",
"a1 c #444e5c",
"a2 c #6c6e74",
"a3 c #14161c",
"a4 c #64666c",
"a5 c #bcbec4",
"a6 c #0c0e14",
/* pixels */
".S.S.S#u#1#u.f#1.f.fac#xacacaO.paO.Q.Q.Q#s#0#0.#.#.N.N.N#w#w.j.jarar.z#p#zai.d.d.D.D.D.7#d#d#d#D",
".S#u.S.f#1.f#1.faK.f#xacac.paO.Q.Q.Q#s#0#saI.#aq.Naz#w#w#w.j.jar.zar#p#zay.d.D.D.Da..7.7.n#D#daj",
".S#1.f.S.f#1.f.facacacac.paO.p.Q.Q.Q#s#0.#.#.#az.N#w.N.j.j.jaNar#p#z#z#pai.d.D.D.7.7a.#d#dajajax",
"#1#Y.vaG.vaG.vaG.vaG.vaG.vaG.v#3#s#s#saI.#aIaz.N.N#w.j#w.jarar#z#p#paiai.D.D.D.Da..7#d#daj#dajaj",
"#u#YaK.f#1acacacacac.paO.p.Q.Q#3#s#0.#.#.#.N.N#w#w.jaN.jarar.z#p#z#z.d.d.D.D.7.7.7.n#d#daxajaxax",
".f.v.f.a.a.a.a.a.a.a.a.a.a.a#s.R.##0.#aIaz.Naz.j#w.j.jar.zar#z#paiay.D.D.D.D.7a.#d#daj#Dajajax.L",
"#1#Y.f.a.a.a.a.a.a.a.a.a.a.a.#.RaI.#az.N.N#w#w#w.j.jarar.z#p#zai.d.d.D.D.7a..7#d#dajaxajaxax.L.0",
".f.v.f.f.p#x.p.p.p.Q.p.#.Q.##0#3aI.#az.N.N#w#w.jaN.jarar#p#zay.dai.D.D.7a..7#d#d#daj#dajax.0aTaT",
".f.v#3#3.R.caC.caC.caC.c.R.R#3#3.#.N.N#w#w.j.j.jarar#p#z#paiai.d.D.Da..7.7.n#d#dajaxax.Lax.LaTaT",
".facacac#x.paO.p.Q.Q.Q.Q#s.#.#.#az.N#w.N.jaN.jarar.z#p#p#zai.d.D.7.D.7a.#d#daj#Daxaj.LaH.LaTaT.2",
"#xacac.pac.paO.Q.Q#s#s#0.#aIaz.N.N#w.N.j#w.jarar.z#z#z.d.d.D.D.D.D.7#d#d#d#dajaxaj.Lax.LaJaT.baJ",
".fac#xaO.paQ.Q.Q#s#s#0.#aI.#.Naz.N.j#w.jar.jarar#z#pay.D.d.D.D.7a..7.n#daj#Daxajax.0aTaTaT.2.2aB",
"acaO.paO.p.Q.Q#s#s#0.#.#az.#.N#w#w#w.j.jarar.z#p#zaiaiai.D.D.D.7#d#d#d#dajajaxaj.LaTaTaT.b.baB.b",
"#x.paO.paQ.Q.Q#s#saI.#aI.N.N#w.N.jaN.jarar.z#p#zay.d.d.d.Da..7a.#d#d#dajaxajax.LaTaTaTaJaE.baEad",
"aOaO.paO.QaQ.Q#s#0.#aI.#aqaz.N#w#w#w.jar.z#p#zayaiayai.D.D.D.7a..7.n#dajajax.LaHaTaTaT.2.baJaBaB",
"acacaKaZ#aaZ.3acaQ#s.QaY#0#0aIaY####aYaqaN#z#parabaqaqabaA.dayayaAaNaAaya.aj.0.L.n.D#Q#Q.n.0.2ad",
"aO.9#E#E#E#EaFal##aY.1.waqaqaqaYaY.w.walaqar.zaq.waR#maRaAayay#g.laAaDaA.6.naxa..Oam.qay.M.0.2ad",
"aOaOay........#T.xalaAaL.6.1.w#N......#..XabaR.B.K......#Q#g#G.n........#G#Ga.#Gap......aL#r.2ad",
".9#Ea#aM.......2#6#a#Q##aYaY#Eak#y......#KaY.w#Ga3....ag#Kak#p.w#2......adaR.Mak#.......#I.Oapao",
".Q.paZ#6.o.......waRaYaYazaq##ak.W.......n.B.B#Qag....a6.waA#Q.w.0#y....#o.l.l.q#.......ap#GaE.s",
"#s#s.9#6.u......agaq.x.NaN.j.1.lab.......o.BaY#Qag....ag.w#Ta.aA.5ad.......5.l#8#I.......2.q.P.U",
"#saI#0aO#6ad.......5.x.1.jaN.NaAaS#........l#Q.wag....ag.way#Day.5am.......4.l.0#I.......tamad#v",
"#0.#.##0#L.X.K......#Kalabarab#G.u#G......ad.n#9a6....agaSay#Da1.0#f#Z.......k#Y#I.......2.qad#2",
"aIazazaIaQ#6.2......#2.x.waNaNa1.ualag....#y#r#Kag....ag.wa1#Da.#IaR.0.......Z.T.2.......2aXaP#2",
".#.NaqaI##aAal#2......#Q#EaqaN.D.l.B.0......#j#Ka6....ag#j#Qaja..2#SaD#y....#.aAap.......W#Q#..h",
"azaI##.9aA.u.x.w......#o#Kal#Kay.6.BaR....#2.w.wag....ag.uay.n.M#IaA.l.U....#Y#G.t.......W.q#.aL",
"aI#0.9.wa.asal.x.2......a0.m.B#G.6#B#jaL..#IaR.wag....#oaR#Ga.#Gap.O.l#Y..#o#G#Gap.......WaX#..h",
".N.z.n#o.nab#0.w.0........aV.naL#.a..O.2.T#G.q.0.........0a..5aE.Kap#Y.O#Z#.#G.5#Z......#Z.2#..h",
"#w#U#pay#paAaN.u.mal#K.layayaAakaN#Q.0#I#W.2a.aA#jaRaR#S#G.naj.n.n.0#i.0#r.n#8.kaX#QaX#Q#Y.W#2.I",
"#pajad#Oa..D.zar.j.6a1.2.5ae.0.DayaH.U.iap#..L.0aT#I.0ajaHaT.2ada0.haL.Ua0.U.Ua0.P.t.2.W#.a0.h.I",
".7.U.F.e#..7ai#p.d.7ad.W#4.2adajajad.o.Ra0.I.saL.o.o.I.Uadad.U.o.Z#W.W.K.K.Eaga3.Ia3#Fa3a3.Ia3#F",
"#Dav#kad.Iax.D.Da.ax#2.i.rag#vaT.b.Iaga5#Z.Ka6.4aw#Pae.I.U.U.o#C#q#M.V#y.vaa.g#y.K.KaV.o.oa3aW.Z",
"#d.U.r.V.o.Paxaj.baPa6aV#4.U#Zao#va6.t#ka2aX#CaC#W#Y#n.K.I.oapaf#N.F.V#b#k#k.VaU#Z#3#P.vag#F.Z.o",
".daJ.I#R#7a3aL.Iau.o#8#O#8aC#I#Z.5.J#P.Cah#P#P#k.c#h.H#o.K#N#eapaU.F#e.8.q#n#S#N#4#k.yagaU.o.o.o",
"aiaj.Ua6.i#O.o#Y#n#Z#n.Fag#2#3#2ag#X#M.e#o.5ahan.v.V#2.K#5.y#XaU.K.J.8.t#y#4ae#e#I#n#l..#y#oa6a6",
".daj#2.o.oaf.Eae#k#4#Vaea6agau.Ha6.K.Fau.K#o#J#n.K.K#C#han.E.oag#oaf.T.K.A#k#4#X#y#b#k#3#Wa2.Kag",
".DaT.T#4.Fa5a3.oa0ag#c.g#H.J.ya4aWav.qaV.h.I#2.8.r#h.C.i#oaW.ha3.W#q#y#o.W.G.Z#y.K#y#N#X#J.4ag#o",
".7aTaX#Oa2#.#2ao.Ia6.caL.Va2#Aa3.UadaPaoadaoa3#N.eaX.Zag.I#2.U.ha3a0.Z#F.oa6a6.o.oa6#o.K.K#o.K#o",
".Daj.P.h#2aPaT.LaP.I.cag.K.I.hao.P.2aBaBaEad.U.I.o#Fa3.h#v.U#2.h.h.I.I.I.IaW#Z#F.Z.o.oagaga6#o.K",
".d.7ajaxajaxajax.U.Y#S.haoaEaB.2aJaJ.2aB.badadao.U.U.U.U.U.U.h#2.4.hav.Ia3a3aWa3.o.o.oa6.K#o.K#o",
".da..D.7a..7#d.2.h#7a0.UaT.LaTaT.b.b.baE.Padadao#..U.U.U#v.h#2.h.h.I.ha3.I#F.Z.o.oa6aga6ag.K#o.K",
".D.7a..7#d#Daxad#2#c.hadaTaJaT.2aJ.2aBaBadaoaP#.ao.U.U.U.h#2aL.h.h.I.Ia3aW.Z.o.o.oa6ag#o.K#o.K.K",
".D.7.7#d#d#daTaP.T.v.U.baTaT.b.baBaBaBadadaPaoao.U.U#v#2#v.h.h.I.I.Ia3#F.oaW.oa6a6ag.K.K#o.K#y#o",
"a..7.n#d#DajaTadat.UadaJ#taJaE.baEaBadadaPao#..U.U#v#2.haL.h.Iav.Ia3a3aW.Z.oa6a6agag#o.K#oaU#y..",
".7#d#dajajajaT.b.2ad.baJ.b.baBaEaBadadaoao#..U.U#2#2.h#2.h.I.ha3a3aW#F.Z.oa6.oag.K.K#o.K#y#y#y#y",
".n#d#dajajax.LaT.baJ.baJaB.2aBaBadaoadaP.s.U.U#v#v#2.h.hav.I.Ia3#F#Z.o.oa6agag.K#o#o.K#o#yaU#y..",
"#dajajaxaxax.0aTaTaTaJ.b.2aB.Padadad.sao.U.U#v#2.h.haL.I.ha3a3aW#Z.o.oa6.oag#o.K#o.K#y#y#y#y....",
"aj#dajaxajaxaTaTaT.2.b.2aBaBadadaoaP.Ua0.U.U#2.haL.h.h.I.Ia3#F.Z.o.oa6.o.K#o.K#o.K#yaU..#y......"
};
