/* XPM */
static char *xmms_dock_master_xpm[] = {
/* width height num_colors chars_per_pixel */
"    64   128      125            2",
/* colors */
".. c #000000",
".# c #00fe00",
".a c #040404",
".b c #07f800",
".c c #080808",
".d c #0c0c0c",
".e c #0df100",
".f c #111111",
".g c #14ea00",
".h c #151515",
".i c #191919",
".j c #1ae400",
".k c #1d1d1d",
".l c #212121",
".m c #21dd00",
".n c #252525",
".o c #262626",
".p c #27d700",
".q c #283c38",
".r c #292929",
".s c #2a2a2a",
".t c #2e2e2e",
".u c #2ed000",
".v c #2f2f2f",
".w c #323232",
".x c #333333",
".y c #343434",
".z c #34ca00",
".A c #373737",
".B c #383838",
".C c #3b3b3b",
".D c #3bc300",
".E c #3c3c3c",
".F c #3f3f3f",
".G c #404040",
".H c #41bd00",
".I c #444444",
".J c #484848",
".K c #48b600",
".L c #494949",
".M c #4c4c4c",
".N c #4eb000",
".O c #515151",
".P c #555555",
".Q c #55a900",
".R c #595959",
".S c #5ba300",
".T c #5d5d5d",
".U c #616161",
".V c #626262",
".W c #629c00",
".X c #689600",
".Y c #696969",
".Z c #6a6a6a",
".0 c #6e6e6e",
".1 c #6f8f00",
".2 c #737373",
".3 c #758900",
".4 c #767676",
".5 c #777777",
".6 c #7b7b7b",
".7 c #7c8200",
".8 c #7f7f7f",
".9 c #808080",
"#. c #827c00",
"## c #838383",
"#a c #848484",
"#b c #86828e",
"#c c #888888",
"#d c #897500",
"#e c #8c8c8c",
"#f c #8f6f00",
"#g c #909090",
"#h c #919191",
"#i c #959595",
"#j c #966800",
"#k c #999999",
"#l c #9c6200",
"#m c #9d9d9d",
"#n c #a2a2a2",
"#o c #a35b00",
"#p c #a7a7a7",
"#q c #a95500",
"#r c #a9a9a9",
"#s c #aeaaae",
"#t c #aeaeae",
"#u c #b04e00",
"#v c #b2b2b2",
"#w c None",
"#x c #b3b3b3",
"#y c #b64800",
"#z c #bbbbbb",
"#A c #bd4100",
"#B c #bfbfbf",
"#C c #c33b00",
"#D c #c4c4c4",
"#E c #c8c8c8",
"#F c #ca3400",
"#G c #cccccc",
"#H c #d02e00",
"#I c #d0d0d0",
"#J c #d4d4d4",
"#K c #d5d5d5",
"#L c #d72700",
"#M c #d8d8d8",
"#N c #d9d9d9",
"#O c #dd2100",
"#P c #dddddd",
"#Q c #dedede",
"#R c #e1e1e1",
"#S c #e2e2e2",
"#T c #e41a00",
"#U c #e6e6e6",
"#V c #ea1400",
"#W c #eaeaea",
"#X c #eeeeee",
"#Y c #efefef",
"#Z c #f10d00",
"#0 c #f3f3f3",
"#1 c #f7f3ff",
"#2 c #f7f7f7",
"#3 c #f80700",
"#4 c #fbfbfb",
"#5 c #fe0000",
"#6 c #ffffff",
/* pixels */
"#w#w#w#w#w#w#w#w#w#w#w#w#w#w#w#w#w#w#w#w#w#w#w#w#w#w#w#w#w#w#w#w#w#w#w#w#w#w#w#w#w#w#w#w#w#w#w#w#w#w#w#w#w#w#w#w#w#w#w#w#w#w#w#w",
"#w#w#w#w#w#w#w#w#w#w#w#w#w#w#w#w#w#w#w#w#w#w#w#w#w#w#w#w#w#w#w#w#w#w#w#w#w#w#w#w#w#w#w#w#w#w#w#w#w#w#w#w#w#w#w#w#w#w#w#w#w#w#w#w",
"#w#w#w#w#w#w#w#w#w#w#w#w#w#w#w#w#w#w#w#w#w#w#w#w#w#w#w#w#w#w#w#w#w#w#w#w#w#w#w#w#w#w#w#w#w#w#w#w#w#w#w#w#w#w#w#w#w#w#w#w#w#w#w#w",
"#w#w#w#w#w#w#w#w#w#w#w#w#w#w#w#w#w#w#w#w#w#w#w#w#w#w#w#w#w#w#w#w#w#w#w#w#w#w#w#w#w#w#w#w#w#w#w#w#w#w#w#w#w#w#w#w#w#w#w#w#w#w#w#w",
"#w#w#w#w#w#w#w#w#w#w#w#w#w#w#w#w#w#w#w#w#w#w#w#w#w#w#w#w#w#w#w#w#w#w#w#w#w#w#w#w#w#w#w#w#w#w#w#w#w#w#w#w#w#w#w#w#w#w#w#w#w#w#w#w",
"#w#w#w#w#w#w#w#w#w#w#w#w#w#w#w#w#w#w#w#w#w#w#w#w#w#w#w#w#w#w#w#w#w#w#w#w#w#w#w#w#w#w#w#w#w#w#w#w#w#w#w#w#w#w#w#w#w#w#w#w#w#w#w#w",
"#w#w#w#w#w#w#w#w#w#w#w#w#w#w#w#w#w#w#w#w#w#w#w#w#w#w#w#w#w#w#w#w#w#w#w#w#w#w#w#w#w#w#w#w#w#w#w#w#w#w#w#w#w#w#w#w#w#w#w#w#w#w#w#w",
"#w#w#w#w#w#w#w#w#w#w#w#w#w#w#w#w#w#w#w#w#w#w#w#w#w#w#w#w#w#w#w#w#w#w#w#w#w#w#w#w#w#w#w#w#w#w#w#w#w#w#w#w#w#w#w#w#w#w#w#w#w#w#w#w",
"#w#w#w#w#w#w#w#w................................................................................................#w#w#w#w#w#w#w#w",
"#w#w#w#w#w#w#w#w................................................................................................#w#w#w#w#w#w#w#w",
"#w#w#w#w#w#w#w#w................................................................................................#w#w#w#w#w#w#w#w",
"#w#w#w#w#w#w#w#w................................................................................................#w#w#w#w#w#w#w#w",
"#w#w#w#w#w#w#w#w................................................................................................#w#w#w#w#w#w#w#w",
"#w#w#w#w#w#w#w#w................................................................................................#w#w#w#w#w#w#w#w",
"#w#w#w#w#w#w#w#w................................................................................................#w#w#w#w#w#w#w#w",
"#w#w#w#w#w#w#w#w.........................f.C.t...k.C.r.k.C.n...M.h...d.J.....d.C.A...x.s.....L.c.....d.J.T.E.a..#w#w#w#w#w#w#w#w",
"#w#w#w#w#w#w#w#w.........................h#6#S..#I#6.R.V#6#n.Y#6#N.c#v#6#k...o#6#P.v#2#0.s.2#6#J.c.E#W#6#6#6.J..#w#w#w#w#w#w#w#w",
"#w#w#w#w#w#w#w#w..........................#K#6.Z#6#D..#a#6#k#Y#4#6.0#4#6#4...G#6#B#G#2#6.0#2#4#6.F#U#K.9#a#x.i..#w#w#w#w#w#w#w#w",
"#w#w#w#w#w#w#w#w..........................#i#6#2#4.s..#t#6#N#a#0#4#M.6#6#I...Z#6#N#D#v#6#K#e#X#6.A#6#X#r.V.f....#w#w#w#w#w#w#w#w",
"#w#w#w#w#w#w#w#w...........................O#6#6#h....#I#6#X.w#6#6#B.P#6#t..#i#6#6.G#Q#6#X.s#6#W..#z#6#6#6#X.i..#w#w#w#w#w#w#w#w",
"#w#w#w#w#w#w#w#w..........................#D#6#6#t...a#4#6.8.I#6#6.G#a#6.8..#B#6#B.c#6#6.8.G#6#B...a.I#i#U#6.C..#w#w#w#w#w#w#w#w",
"#w#w#w#w#w#w#w#w.........................U#6#E#6#P...t#6#4.i.0#6#J..#t#6.O..#W#6.P.t#6#4.i.Z#6#i.r#c.G.I#p#4.h..#w#w#w#w#w#w#w#w",
"#w#w#w#w#w#w#w#w.......................k#X#4.l#R#6.6.O#6#t..#k#6.0..#G#6##.h#6#W.a.P#6#t..#g#6#t.6#6#6#6#6.4....#w#w#w#w#w#w#w#w",
"#w#w#w#w#w#w#w#w.......................J.9.P...M#k.P.E.9.B...T.9.i...T#m.R.k.9.R...E.9.B...y#n.5.k.5#n#e.w......#w#w#w#w#w#w#w#w",
"#w#w#w#w#w#w#w#w................................................................................................#w#w#w#w#w#w#w#w",
"#w#w#w#w#w#w#w#w................................................................................................#w#w#w#w#w#w#w#w",
"#w#w#w#w#w#w#w#w................................................................................................#w#w#w#w#w#w#w#w",
"#w#w#w#w#w#w#w#w................................................................................................#w#w#w#w#w#w#w#w",
"#w#w#w#w#w#w#w#w................................................................................................#w#w#w#w#w#w#w#w",
"#w#w#w#w#w#w#w#w................................................................................................#w#w#w#w#w#w#w#w",
"#w#w#w#w#w#w#w#w................................................................................................#w#w#w#w#w#w#w#w",
"#w#w#w#w#w#w#w#w................................................................................................#w#w#w#w#w#w#w#w",
"#w#w#w#w#w#w#w#w................................................................................................#w#w#w#w#w#w#w#w",
"#w#w#w#w#w#w#w#w................................................................................................#w#w#w#w#w#w#w#w",
"#w#w#w#w#w#w#w#w................................................................................................#w#w#w#w#w#w#w#w",
"#w#w#w#w#w#w#w#w................................................................................................#w#w#w#w#w#w#w#w",
"#w#w#w#w#w#w#w#w................................................................................................#w#w#w#w#w#w#w#w",
"#w#w#w#w#w#w#w#w................................................................................................#w#w#w#w#w#w#w#w",
"#w#w#w#w#w#w#w#w................................................................................................#w#w#w#w#w#w#w#w",
"#w#w#w#w#w#w#w#w................................................................................................#w#w#w#w#w#w#w#w",
"#w#w#w#w#w#w#w#w................................................................................................#w#w#w#w#w#w#w#w",
"#w#w#w#w#w#w#w#w................................................................................................#w#w#w#w#w#w#w#w",
"#w#w#w#w#w#w#w#w................................................................................................#w#w#w#w#w#w#w#w",
"#w#w#w#w#w#w#w#w................................................................................................#w#w#w#w#w#w#w#w",
"#w#w#w#w#w#w#w#w................................................................................................#w#w#w#w#w#w#w#w",
"#w#w#w#w#w#w#w#w................................................................................................#w#w#w#w#w#w#w#w",
"#w#w#w#w#w#w#w#w................................................................................................#w#w#w#w#w#w#w#w",
"#w#w#w#w#w#w#w#w................................................................................................#w#w#w#w#w#w#w#w",
"#w#w#w#w#w#w#w#w................................................................................................#w#w#w#w#w#w#w#w",
"#w#w#w#w#w#w#w#w................................................................................................#w#w#w#w#w#w#w#w",
"#w#w#w#w#w#w#w#w................................................................................................#w#w#w#w#w#w#w#w",
"#w#w#w#w#w#w#w#w................................................................................................#w#w#w#w#w#w#w#w",
"#w#w#w#w#w#w#w#w................................................................................................#w#w#w#w#w#w#w#w",
"#w#w#w#w#w#w#w#w................................................................................................#w#w#w#w#w#w#w#w",
"#w#w#w#w#w#w#w#w................................................................................................#w#w#w#w#w#w#w#w",
"#w#w#w#w#w#w#w#w................................................................................................#w#w#w#w#w#w#w#w",
"#w#w#w#w#w#w#w#w#w#w#w#w#w#w#w#w#w#w#w#w#w#w#w#w#w#w#w#w#w#w#w#w#w#w#w#w#w#w#w#w#w#w#w#w#w#w#w#w#w#w#w#w#w#w#w#w#w#w#w#w#w#w#w#w",
"#w#w#w#w#w#w#w#w#w#w#w#w#w#w#w#w#w#w#w#w#w#w#w#w#w#w#w#w#w#w#w#w#w#w#w#w#w#w#w#w#w#w#w#w#w#w#w#w#w#w#w#w#w#w#w#w#w#w#w#w#w#w#w#w",
"#w#w#w#w#w#w#w#w#w#w#w#w#w#w#w#w#w#w#w#w#w#w#w#w#w#w#w#w#w#w#w#w#w#w#w#w#w#w#w#w#w#w#w#w#w#w#w#w#w#w#w#w#w#w#w#w#w#w#w#w#w#w#w#w",
"#w#w#w#w#w#w#w#w#w#w#w#w#w#w#w#w#w#w#w#w#w#w#w#w#w#w#w#w#w#w#w#w#w#w#w#w#w#w#w#w#w#w#w#w#w#w#w#w#w#w#w#w#w#w#w#w#w#w#w#w#w#w#w#w",
"#w#w#w#w#w#w#w#w#w#w#w#w#w#w#w#w#w#w#w#w#w#w#w#w#w#w#w#w#w#w#w#w#w#w#w#w#w#w#w#w#w#w#w#w#w#w#w#w#w#w#w#w#w#w#w#w#w#w#w#w#w#w#w#w",
"#w#w#w#w#w#w#w#w#w#w#w#w#w#w#w#w#w#w#w#w#w#w#w#w#w#w#w#w#w#w#w#w#w#w#w#w#w#w#w#w#w#w#w#w#w#w#w#w#w#w#w#w#w#w#w#w#w#w#w#w#w#w#w#w",
"#w#w#w#w#w#w#w#w#w#w#w#w#w#w#w#w#w#w#w#w#w#w#w#w#w#w#w#w#w#w#w#w#w#w#w#w#w#w#w#w#w#w#w#w#w#w#w#w#w#w#w#w#w#w#w#w#w#w#w#w#w#w#w#w",
"#w#w#w#w#w#w#w#w#w#w#w#w#w#w#w#w#w#w#w#w#w#w#w#w#w#w#w#w#w#w#w#w#w#w#w#w#w#w#w#w#w#w#w#w#w#w#w#w#w#w#w#w#w#w#w#w#w#w#w#w#w#w#w#w",
"#s#s#s#s#s#s#s#s#b..#s#s#s#s#s#s#s#s#b..................#b..................#b..................................................",
"#s..................#s..................................#s..................#s......#5#5#5#5#5#5................................",
"#s..................#s..................................#s..................#s......#3#3#3#3#3#3................................",
"#s....#1............#s..#1#1..#1#1............#1........#s......#1#1..#1#1..#s......#Z#Z#Z#Z#Z#Z................................",
"#s....#1#1..........#s..#1#1..#1#1............#1#1......#s......#1#1..#1#1..#s......#V#V#V#V#V#V................................",
"#s....#1#1#1........#s..#1#1..#1#1............#1#1#1....#s......#1#1..#1#1..#s......#T#T#T#T#T#T................................",
"#s....#1#1..........#s..#1#1..#1#1............#1#1......#s......#1#1..#1#1..#s......#O#O#O#O#O#O................................",
"#s....#1............#s..#1#1..#1#1............#1........#s......#1#1..#1#1..#s......#L#L#L#L#L#L................................",
"#s..................#s..................................#s..................#s......#H#H#H#H#H#H................................",
"#s..................#s..................................#s..................#s......#F#F#F#F#F#F................................",
"#b..................#b..................#b#s#s#s#s#s#s#s#s..#b#s#s#s#s#s#s#s#s......#C#C#C#C#C#C................................",
"#s#s#s#s#s#s#s#s#b..#s#s#s#s#s#s#s#s#b..................#b..................#b......#A#A#A#A#A#A................................",
"#s..................#s..................................#s..................#s......#y#y#y#y#y#y................................",
"#s..................#s..................................#s..................#s......#u#u#u#u#u#u................................",
"#s......#1..........#s..#1#1#1#1#1..............#1......#s......#1#1#1#1#1..#s......#q#q#q#q#q#q................................",
"#s....#1#1#1........#s..#1#1#1#1#1............#1#1#1....#s......#1#1#1#1#1..#s......#o#o#o#o#o#o................................",
"#s..#1#1#1#1#1......#s..#1#1#1#1#1..........#1#1#1#1#1..#s......#1#1#1#1#1..#s......#l#l#l#l#l#l................................",
"#s..................#s..#1#1#1#1#1......................#s......#1#1#1#1#1..#s......#j#j#j#j#j#j................................",
"#s..#1#1#1#1#1......#s..#1#1#1#1#1..........#1#1#1#1#1..#s......#1#1#1#1#1..#s......#f#f#f#f#f#f................................",
"#s..................#s..................................#s..................#s......#d#d#d#d#d#d................................",
"#s..................#s..................................#s..................#s......#.#.#.#.#.#.................................",
"#b..................#b..................#b#s#s#s#s#s#s#s#s..#b#s#s#s#s#s#s#s#s.......7.7.7.7.7.7................................",
"#s#s#s#s#s#s#s#s#b..#s#s#s#s#s#s#s#s#b..................#b..................#b.......3.3.3.3.3.3................................",
"#s..................#s..................................#s..................#s.......1.1.1.1.1.1................................",
"#s..................#s..................................#s..................#s.......X.X.X.X.X.X................................",
"#s....#1....#1......#s....#1....#1............#1....#1..#s........#1....#1..#s.......W.W.W.W.W.W................................",
"#s....#1..#1#1......#s....#1#1..#1............#1..#1#1..#s........#1#1..#1..#s.......S.S.S.S.S.S................................",
"#s....#1#1#1#1......#s....#1#1#1#1............#1#1#1#1..#s........#1#1#1#1..#s.......Q.Q.Q.Q.Q.Q................................",
"#s....#1..#1#1......#s....#1#1..#1............#1..#1#1..#s........#1#1..#1..#s.......N.N.N.N.N.N................................",
"#s....#1....#1......#s....#1....#1............#1....#1..#s........#1....#1..#s.......K.K.K.K.K.K................................",
"#s..................#s..................................#s..................#s.......H.H.H.H.H.H................................",
"#s..................#s..................................#s..................#s.......D.D.D.D.D.D................................",
"#b..................#b..................#b#s#s#s#s#s#s#s#s..#b#s#s#s#s#s#s#s#s.......z.z.z.z.z.z................................",
".....................................................................................u.u.u.u.u.u................................",
".....................................................................................p.p.p.p.p.p................................",
".....................................................................................m.m.m.m.m.m................................",
".....................................................................................j.j.j.j.j.j................................",
".....................................................................................g.g.g.g.g.g................................",
".....................................................................................e.e.e.e.e.e................................",
".......f.C.t...k.C.r.k.C.n...M.h...d.J.....d.C.A...x.s.....L.c.....d.J.T.E.a.........b.b.b.b.b.b................................",
".......h#6#S..#I#6.R.V#6#n.Y#6#N.c#v#6#k...o#6#P.v#2#0.s.2#6#J.c.E#W#6#6#6.J.........#.#.#.#.#.#................................",
"........#K#6.Z#6#D..#a#6#k#Y#4#6.0#4#6#4...G#6#B#G#2#6.0#2#4#6.F#U#K.9#a#x.i....................................................",
"........#i#6#2#4.s..#t#6#N#a#0#4#M.6#6#I...Z#6#N#D#v#6#K#e#X#6.A#6#X#r.V.f......................................................",
".........O#6#6#h....#I#6#X.w#6#6#B.P#6#t..#i#6#6.G#Q#6#X.s#6#W..#z#6#6#6#X.i....................................................",
"........#D#6#6#t...a#4#6.8.I#6#6.G#a#6.8..#B#6#B.c#6#6.8.G#6#B...a.I#i#U#6.C....................................................",
".......U#6#E#6#P...t#6#4.i.0#6#J..#t#6.O..#W#6.P.t#6#4.i.Z#6#i.r#c.G.I#p#4.h....................................................",
".....k#X#4.l#R#6.6.O#6#t..#k#6.0..#G#6##.h#6#W.a.P#6#t..#g#6#t.6#6#6#6#6.4......................................................",
".....J.9.P...M#k.P.E.9.B...T.9.i...T#m.R.k.9.R...E.9.B...y#n.5.k.5#n#e.w........................................................",
".........................................................................................H.H.H.H.H.H.H.H.H......................",
"...........................................................................................H.....H.....H........................",
".............................................................................................H...H...H..........................",
".........................................................................................q.q.q.q.q.q.q.q.q......................",
".............................................................................................H...H...H..........................",
"...........................................................................................H.....H.....H........................",
"......#b#b#b#b#b#b#b#b#b#b#b#b#b#b#b#b#b#b#b#b#b#b#b#b#b#b#b#b#b#b#b#b#b.................H.H.H.H.H.H.H.H.H......................",
"......#b..............................................................#b........................................................",
"......#b..............................................................#b........................................................",
"......#b.q.q.q.q.q.q.q.q.q.q.q.q.q.q.q.q.q.q.q.q.q.q.q.q.q.q.q.q.q.q.q#b........................................................",
"......#b..............................................................#b........................................................",
"......#b..............................................................#b........................................................",
"......#b#b#b#b#b#b#b#b#b#b#b#b#b#b#b#b#b#b#b#b#b#b#b#b#b#b#b#b#b#b#b#b#b........................................................",
"................................................................................................................................",
"................................................................................................................................",
"................................................................................................................................"
};
